<svg width="528" height="527" viewBox="0 0 28 27" fill="none" xmlns="http://www.w3.org/2000/svg">
<path d="M27.105 11.4525V12.4463C27.105 15.5744 26.5454 18.2227 25.4238 20.3865C24.3095 22.5526 22.7485 24.1999 20.7555 25.3185C18.7601 26.4395 16.4383 27 13.79 27C11.8412 27 10.0323 26.6622 8.35109 25.9842C6.67474 25.3111 5.21438 24.3614 3.97492 23.145C2.73545 21.9285 1.76843 20.4917 1.07384 18.8444C0.3817 17.1874 0.0380859 15.4006 0.0380859 13.4816C0.0380859 11.5627 0.396426 9.7759 1.11065 8.12619C1.82979 6.47892 2.83363 5.04705 4.12218 3.82567C5.41073 2.60919 6.91282 1.66195 8.62598 0.983954C10.0348 0.425891 11.5271 0.100354 13.093 0V5.9282C12.0793 6.03835 11.1442 6.33451 10.2876 6.8167C9.1684 7.4433 8.28727 8.32934 7.64422 9.47484C6.99872 10.6203 6.6772 11.9421 6.6772 13.4425C6.6772 14.9429 6.97909 16.3111 7.58777 17.4664C8.19646 18.6266 9.04322 19.52 10.1256 20.1441C11.208 20.7732 12.4524 21.084 13.8636 21.084C15.2749 21.084 16.4726 20.8221 17.4544 20.291C18.4411 19.7623 19.1872 18.984 19.7002 17.9462C19.8253 17.6989 19.9309 17.4395 20.0266 17.1678L13.1003 17.158V11.4476H27.1075L27.105 11.4525Z" fill="#003D29"/>
<path d="M25.361 4.79277L20.9975 8.7098L20.9019 8.624L16.6289 4.79277L20.9975 0.871094L22.2479 1.99588L22.2557 2.00052L25.2344 4.67913L25.361 4.79277Z" fill="#F37121"/>
</svg>
